<?xml version="1.0" standalone="no"?>
<!DOCTYPE svg PUBLIC "-//W3C//DTD SVG 20010904//EN"
 "http://www.w3.org/TR/2001/REC-SVG-20010904/DTD/svg10.dtd">
<svg version="1.0" xmlns="http://www.w3.org/2000/svg"
 width="500.000000pt" height="500.000000pt" viewBox="0 0 500.000000 500.000000"
 preserveAspectRatio="xMidYMid meet">

<g transform="translate(0.000000,500.000000) scale(0.100000,-0.100000)"
fill="#000000" stroke="none">
<path d="M2115 3676 c2 -21 1 -36 -2 -33 -11 12 -43 -29 -43 -56 0 -22 -4 -28
-16 -23 -8 3 -12 2 -9 -4 3 -5 -1 -23 -10 -40 -8 -16 -15 -31 -14 -32 5 -9
-14 -109 -22 -114 -5 -3 -9 -25 -9 -49 0 -25 -6 -50 -15 -59 -8 -8 -15 -28
-15 -44 0 -16 -7 -35 -15 -42 -9 -7 -14 -19 -11 -27 3 -7 1 -13 -5 -13 -6 0
-8 -4 -5 -8 8 -13 -28 -11 -36 2 -4 6 -10 7 -15 3 -4 -5 -1 -12 7 -18 13 -8
13 -11 -2 -23 -20 -15 -24 -31 -5 -20 9 6 9 4 -1 -8 -7 -9 -21 -14 -32 -11
-11 3 -20 0 -20 -6 0 -6 -12 -16 -26 -21 -18 -7 -24 -15 -20 -26 3 -8 2 -12
-4 -9 -5 3 -24 -8 -43 -25 -24 -20 -41 -28 -53 -23 -14 5 -16 2 -12 -15 5 -19
3 -21 -17 -16 -16 4 -26 0 -34 -13 -6 -10 -11 -13 -11 -5 0 7 -5 10 -10 7 -7
-5 -8 -11 -1 -18 12 -15 -2 -34 -50 -66 -19 -13 -41 -36 -47 -50 -6 -14 -25
-35 -42 -46 -16 -11 -30 -26 -30 -32 0 -8 -13 -13 -30 -13 -34 0 -41 19 -10
27 11 3 20 12 20 19 0 24 -23 15 -52 -18 l-28 -33 -24 28 c-17 20 -32 27 -60
27 -25 0 -36 4 -36 15 0 22 -17 18 -23 -5 -6 -23 -37 -17 -37 6 0 8 -4 14 -10
14 -5 0 -10 -4 -10 -10 0 -5 -10 -10 -22 -10 -15 0 -19 3 -11 8 8 5 9 12 2 22
-8 11 -12 12 -16 3 -5 -14 -33 -18 -33 -5 0 4 -18 18 -40 32 -45 28 -49 35
-20 43 25 6 26 35 2 44 -9 3 -25 13 -34 21 -10 8 -24 12 -33 9 -10 -5 -15 0
-15 13 0 13 -7 20 -18 20 -30 0 -42 22 -42 77 0 33 -4 53 -11 53 -8 0 -10 -14
-6 -40 3 -22 1 -40 -4 -40 -5 0 -9 18 -9 41 0 26 -4 38 -11 34 -6 -4 -8 -25
-5 -50 3 -28 0 -45 -7 -48 -18 -6 -19 -43 -24 -811 -5 -754 -3 -794 39 -911
69 -191 255 -386 442 -463 147 -60 65 -56 1236 -60 1211 -3 1147 -7 1316 73
184 86 316 217 395 391 59 131 62 154 65 574 2 337 -9 1022 -20 1195 -3 61
-12 95 -25 95 -4 0 -15 -16 -24 -35 -11 -24 -21 -33 -32 -29 -8 4 -15 8 -15
11 0 3 7 2 16 -1 10 -4 14 -1 12 6 -3 7 -15 15 -28 16 -19 3 -22 0 -17 -19 8
-30 -27 -88 -51 -84 -9 1 -11 0 -4 -2 6 -3 12 -15 12 -29 0 -22 -2 -23 -20
-12 -27 17 -50 -3 -30 -27 18 -21 5 -31 -15 -11 -23 23 -32 20 -49 -13 -17
-32 -46 -49 -46 -26 0 11 -12 15 -41 15 -36 0 -41 -3 -50 -30 -13 -36 -29 -39
-29 -6 0 47 -19 37 -22 -11 l-3 -47 -47 3 c-32 2 -48 -1 -48 -9 0 -18 -68 -3
-93 21 -11 10 -26 19 -33 19 -6 0 -15 8 -18 17 -5 12 -9 14 -14 6 -5 -8 -20
-2 -48 17 -23 15 -51 31 -63 35 -11 3 -21 10 -21 15 0 5 -8 10 -17 12 -10 2
-18 12 -18 22 0 11 -6 21 -14 24 -9 3 -11 -1 -7 -16 4 -11 2 -23 -5 -27 -8 -5
-8 -10 -1 -14 6 -4 7 -12 3 -19 -5 -9 -17 0 -37 30 -16 24 -36 48 -44 55 -8 7
-12 13 -9 13 4 0 -9 17 -27 37 -19 20 -34 43 -34 51 0 7 -4 11 -9 8 -5 -3 -16
6 -26 20 -9 14 -19 23 -22 20 -10 -10 -32 15 -26 30 4 10 0 12 -10 8 -17 -6
-62 20 -62 36 0 6 -2 9 -5 9 -3 -1 -33 13 -67 31 -54 28 -61 35 -52 51 6 13 6
19 -1 19 -5 0 -10 -5 -10 -11 0 -6 -12 4 -27 23 -16 18 -34 39 -40 46 -7 7
-13 20 -13 28 0 8 -6 14 -13 14 -8 0 -24 9 -37 20 -13 11 -29 20 -37 20 -7 0
-13 5 -13 11 0 5 -4 8 -9 5 -5 -4 -18 6 -29 21 -17 23 -22 25 -36 14 -9 -7
-16 -17 -16 -21 0 -12 61 -85 69 -83 4 1 8 -4 8 -10 0 -7 19 -43 43 -81 88
-139 141 -290 155 -443 9 -92 13 -93 78 -12 38 47 69 122 82 197 4 25 12 42
20 42 26 0 91 -210 100 -320 4 -45 2 -59 -4 -45 -7 15 -10 16 -10 4 -1 -12 -8
-15 -26 -11 -14 2 -23 8 -20 11 2 4 -4 7 -13 6 -32 -4 -51 -17 -45 -31 6 -16
33 -19 33 -3 0 5 -4 7 -10 4 -5 -3 -10 -2 -10 4 0 12 20 25 21 14 1 -4 3 -17
4 -29 1 -11 14 -50 28 -86 15 -36 28 -80 29 -97 5 -65 39 -47 65 35 9 30 22
53 27 51 6 -2 15 -27 20 -56 10 -57 1 -73 -36 -66 -10 2 -16 0 -13 -6 4 -5 1
-10 -4 -10 -43 -5 -55 -20 -79 -96 -21 -67 -82 -174 -103 -181 -5 -2 -9 -9 -9
-16 0 -22 -39 -51 -51 -39 -6 6 -18 9 -26 6 -9 -4 -16 2 -20 16 -3 13 -11 20
-19 17 -8 -3 -13 -2 -12 2 3 12 -25 62 -34 62 -5 0 -7 4 -4 8 3 5 -1 9 -8 9
-10 0 -2 -24 24 -76 49 -97 64 -164 58 -259 -3 -58 -12 -91 -33 -134 -26 -54
-51 -80 -39 -40 5 16 5 16 -6 -1 -6 -9 -8 -23 -4 -30 4 -6 -3 -2 -14 10 l-22
22 -24 -22 c-14 -13 -61 -32 -116 -46 -79 -20 -105 -23 -186 -17 -52 3 -103
11 -112 16 -27 14 -56 23 -68 21 -6 0 -17 6 -24 14 -7 8 -21 15 -32 15 -15 0
-18 4 -14 17 4 10 4 14 0 10 -4 -4 -18 0 -31 9 -23 15 -24 15 -14 -5 8 -13 8
-22 1 -26 -6 -4 -22 19 -38 52 -35 75 -42 202 -17 289 19 66 71 181 93 207 8
9 12 20 8 24 -4 4 -29 -16 -56 -45 -31 -35 -50 -49 -53 -40 -3 8 -9 3 -17 -14
-7 -15 -17 -25 -21 -22 -5 3 -9 0 -9 -5 0 -6 -5 -11 -11 -11 -15 0 -59 -47
-59 -63 0 -7 -4 -6 -10 3 -7 12 -10 8 -10 -15 -1 -26 -2 -27 -10 -9 -13 34 8
183 37 259 42 111 126 235 267 395 8 8 22 30 33 47 11 18 22 30 26 27 3 -3 3
5 -1 18 -5 17 -7 19 -10 6 -2 -9 -16 -20 -33 -23 -16 -4 -29 -13 -29 -20 0 -9
-6 -12 -15 -9 -8 4 -15 2 -15 -4 0 -6 -14 -13 -30 -17 -17 -4 -36 -15 -43 -26
-6 -10 -16 -19 -22 -19 -6 0 -18 -9 -28 -20 -9 -11 -23 -20 -31 -20 -7 0 -19
-7 -26 -15 -7 -8 -21 -15 -31 -15 -11 0 -19 -5 -19 -10 0 -6 -10 -15 -22 -21
-48 -21 -139 -82 -158 -105 -9 -11 -26 -26 -40 -35 -18 -12 -26 -31 -36 -90
l-13 -74 5 70 c6 83 36 211 60 257 31 61 96 150 183 252 183 214 215 281 227
476 6 82 3 110 -20 205 -15 62 -39 131 -55 159 l-29 50 3 -38z m-225 -620 c0
-2 -8 -10 -17 -17 -16 -13 -17 -12 -4 4 13 16 21 21 21 13z m-90 -86 c-6 -11
-13 -20 -16 -20 -2 0 0 9 6 20 6 11 13 20 16 20 2 0 0 -9 -6 -20z m-37 -15
c-3 -9 -8 -14 -10 -11 -3 3 -2 9 2 15 9 16 15 13 8 -4z m-6 -40 c-15 -13 -28
-28 -29 -32 -2 -12 -22 -43 -28 -43 -3 0 -6 9 -6 19 0 11 5 17 10 14 5 -4 7 1
3 11 -4 10 -3 15 3 11 6 -4 14 4 19 17 6 13 10 16 10 8 1 -12 4 -11 18 3 10 9
20 17 23 17 3 0 -7 -12 -23 -25z m-107 -35 c0 -5 -8 -10 -17 -10 -15 0 -16 2
-3 10 19 12 20 12 20 0z m-681 -17 c0 -10 -3 -13 -5 -6 -3 7 -11 10 -19 7 -7
-3 -16 -1 -20 5 -4 7 4 11 19 11 18 0 26 -5 25 -17z m714 -57 c-10 -13 -20
-22 -22 -20 -4 4 29 44 36 44 2 0 -4 -11 -14 -24z m1673 -3 c-3 -3 4 -19 15
-34 11 -16 16 -29 10 -29 -11 0 -41 51 -41 70 0 6 5 8 11 5 6 -4 8 -9 5 -12z
m-1725 -86 c-10 -9 -11 -8 -5 6 3 10 9 15 12 12 3 -3 0 -11 -7 -18z m1770 -1
c5 3 9 1 9 -5 0 -5 -4 -13 -10 -16 -5 -3 -10 -4 -10 -1 0 2 -2 10 -3 18 -2 7
-2 10 0 5 3 -4 9 -5 14 -1z m359 -16 c0 -5 -18 -10 -40 -10 -22 0 -40 5 -40
10 0 6 18 10 40 10 22 0 40 -4 40 -10z m-1579 -47 c-12 -20 -14 -14 -5 12 4 9
9 14 11 11 3 -2 0 -13 -6 -23z m1255 -38 c9 -39 0 -30 -15 15 -6 19 -7 30 -2
25 5 -6 13 -23 17 -40z m28 -104 c-7 -7 -12 3 -18 39 l-6 35 14 -35 c7 -19 12
-37 10 -39z m-1907 -13 c-3 -8 -6 -5 -6 6 -1 11 2 17 5 13 3 -3 4 -12 1 -19z
m1910 -30 c-3 -8 -6 -5 -6 6 -1 11 2 17 5 13 3 -3 4 -12 1 -19z m10 -75 c-3
-10 -5 -2 -5 17 0 19 2 27 5 18 2 -10 2 -26 0 -35z m-1940 -25 c-3 -7 -5 -2
-5 12 0 14 2 19 5 13 2 -7 2 -19 0 -25z m1950 -120 c-2 -24 -4 -7 -4 37 0 44
2 63 4 43 2 -21 2 -57 0 -80z m-1950 -110 c-2 -13 -4 -5 -4 17 -1 22 1 32 4
23 2 -10 2 -28 0 -40z m1940 -5 c-3 -10 -5 -4 -5 12 0 17 2 24 5 18 2 -7 2
-21 0 -30z m-1930 -60 c-3 -10 -5 -4 -5 12 0 17 2 24 5 18 2 -7 2 -21 0 -30z
m1913 -44 c-17 -68 -23 -57 -8 15 7 32 14 53 16 47 2 -7 -2 -34 -8 -62z
m-1903 -1 c-3 -8 -6 -5 -6 6 -1 11 2 17 5 13 3 -3 4 -12 1 -19z m43 -133 c0
-5 -5 -3 -10 5 -5 8 -10 20 -10 25 0 6 5 3 10 -5 5 -8 10 -19 10 -25z m1801
-49 c-11 -25 -22 -46 -25 -46 -2 0 5 22 17 50 11 27 23 48 25 46 2 -3 -5 -25
-17 -50z m-1767 -23 c14 -29 24 -53 21 -53 -5 0 -55 95 -55 106 0 12 6 2 34
-53z m1705 -90 c-74 -108 -129 -170 -217 -243 -82 -69 -194 -140 -218 -140 -5
0 18 15 51 33 130 70 269 197 355 324 30 44 57 79 58 78 2 -2 -11 -25 -29 -52z
m-1654 1 c9 -15 12 -23 6 -20 -11 7 -35 46 -28 46 3 0 12 -12 22 -26z m60 -84
c10 -11 16 -20 13 -20 -3 0 -13 9 -23 20 -10 11 -16 20 -13 20 3 0 13 -9 23
-20z m56 -77 c13 -16 12 -17 -3 -4 -10 7 -18 15 -18 17 0 8 8 3 21 -13z m34
-23 c3 -5 1 -10 -4 -10 -6 0 -11 5 -11 10 0 6 2 10 4 10 3 0 8 -4 11 -10z
m520 -25 c53 -26 71 -29 155 -30 52 0 111 3 130 7 27 6 25 4 -10 -8 -92 -31
-254 -6 -333 51 -26 20 -21 18 58 -20z m-480 -15 c10 -11 16 -20 13 -20 -3 0
-13 9 -23 20 -10 11 -16 20 -13 20 3 0 13 -9 23 -20z m835 16 c0 -2 -7 -7 -16
-10 -8 -3 -12 -2 -9 4 6 10 25 14 25 6z m-785 -56 c10 -11 16 -20 13 -20 -3 0
-13 9 -23 20 -10 11 -16 20 -13 20 3 0 13 -9 23 -20z m171 -108 c-5 -4 -66 26
-66 33 0 3 16 -3 35 -12 19 -9 33 -18 31 -21z m754 -33 c-59 -27 -196 -59
-240 -58 -24 1 -15 4 28 11 35 4 102 21 150 37 102 34 125 37 62 10z m-660 1
c8 -5 11 -10 5 -10 -5 0 -17 5 -25 10 -8 5 -10 10 -5 10 6 0 17 -5 25 -10z
m65 -20 c13 -5 14 -9 5 -9 -8 0 -24 4 -35 9 -13 5 -14 9 -5 9 8 0 24 -4 35 -9z
m52 -16 c-3 -3 -12 -4 -19 -1 -8 3 -5 6 6 6 11 1 17 -2 13 -5z m46 -11 c-7 -2
-19 -2 -25 0 -7 3 -2 5 12 5 14 0 19 -2 13 -5z m70 -10 c-7 -2 -21 -2 -30 0
-10 3 -4 5 12 5 17 0 24 -2 18 -5z"/>
<path d="M2582 3471 c-9 -6 -8 -12 7 -25 14 -12 21 -14 26 -6 10 16 -17 41
-33 31z m28 -22 c0 -6 -4 -7 -10 -4 -5 3 -10 11 -10 16 0 6 5 7 10 4 6 -3 10
-11 10 -16z"/>
<path d="M2927 3204 c23 -17 30 -17 30 -1 0 6 -11 13 -24 13 -22 2 -23 1 -6
-12z"/>
<path d="M4190 3095 c0 -8 5 -15 10 -15 6 0 10 7 10 15 0 8 -4 15 -10 15 -5 0
-10 -7 -10 -15z"/>
<path d="M3105 3080 c3 -5 8 -10 11 -10 2 0 4 5 4 10 0 6 -5 10 -11 10 -5 0
-7 -4 -4 -10z"/>
<path d="M3152 3064 c10 -10 20 -16 22 -13 3 3 -5 11 -17 18 -21 13 -21 12 -5
-5z"/>
<path d="M863 3035 c0 -22 2 -30 4 -17 2 12 2 30 0 40 -3 9 -5 -1 -4 -23z"/>
<path d="M3255 2980 c-4 -6 -10 -8 -15 -5 -5 3 -11 1 -14 -4 -4 -5 -1 -13 5
-17 6 -4 16 1 21 10 5 9 14 13 20 10 7 -4 8 -2 4 4 -9 15 -13 15 -21 2z"/>
<path d="M3265 2936 c1 -11 4 -19 7 -16 8 6 48 -30 48 -43 0 -6 -10 -2 -21 9
-22 19 -22 19 -8 -4 14 -22 30 -25 36 -5 2 6 -3 18 -12 26 -8 9 -15 19 -15 24
0 4 -8 13 -18 20 -16 9 -18 8 -17 -11z"/>
<path d="M3988 2933 c7 -3 16 -2 19 1 4 3 -2 6 -13 5 -11 0 -14 -3 -6 -6z"/>
<path d="M3455 2850 c-3 -5 1 -10 9 -10 9 0 16 5 16 10 0 6 -4 10 -9 10 -6 0
-13 -4 -16 -10z"/>
<path d="M1027 2843 c-3 -5 1 -14 9 -21 12 -11 14 -9 14 8 0 20 -14 27 -23 13z"/>
<path d="M1111 2824 c0 -11 3 -14 6 -6 3 7 2 16 -1 19 -3 4 -6 -2 -5 -13z"/>
<path d="M3480 2820 c0 -5 5 -10 11 -10 5 0 7 5 4 10 -3 6 -8 10 -11 10 -2 0
-4 -4 -4 -10z"/>
<path d="M1141 2790 c-16 -9 -6 -30 15 -30 15 0 20 25 6 34 -4 2 -14 1 -21 -4z"/>
<path d="M3020 2640 c0 -5 -7 -7 -15 -4 -10 4 -15 0 -15 -10 0 -15 -13 -16
-132 -10 -77 4 -137 12 -141 18 -6 7 -7 5 -4 -6 3 -9 0 -19 -8 -22 -9 -3 -12
0 -8 10 7 19 -17 15 -34 -6 -11 -13 -12 -13 -13 -1 0 8 -27 -13 -60 -48 l-61
-62 53 -47 c64 -57 138 -132 186 -190 l35 -43 39 38 c64 62 146 167 164 209 9
21 18 67 19 100 1 34 5 67 9 73 4 6 2 11 -3 11 -6 0 -11 -4 -11 -10z"/>
<path d="M2340 2345 c-24 -25 -42 -45 -39 -45 3 0 25 20 49 45 24 25 42 45 39
45 -3 0 -25 -20 -49 -45z"/>
<path d="M2266 2276 c5 -13 4 -17 -4 -12 -6 3 -13 2 -16 -3 -11 -17 11 -21 24
-5 10 12 11 17 1 27 -10 9 -11 8 -5 -7z"/>
</g>
</svg>
